<?xml version="1.0" encoding="UTF-8" standalone="no"?>
<!DOCTYPE svg PUBLIC "-//W3C//DTD SVG 1.1//EN" "http://www.w3.org/Graphics/SVG/1.1/DTD/svg11.dtd">
<svg width="100%" height="100%" viewBox="0 0 4725 4725" version="1.1" xmlns="http://www.w3.org/2000/svg" xmlns:xlink="http://www.w3.org/1999/xlink" xml:space="preserve" xmlns:serif="http://www.serif.com/" style="fill-rule:evenodd;clip-rule:evenodd;stroke-linecap:round;stroke-linejoin:round;stroke-miterlimit:1.5;">
    <g transform="matrix(1,0,0,1,204.486,-28.1995)">
        <g transform="matrix(1,0,0,1,-560.545,1873.37)">
            <path d="M3182.28,1166.68L1943.1,-272.846L1943.1,1161.96C1943.1,1285.08 1967.31,1379.62 2015.72,1445.6C2064.13,1511.58 2135.07,1544.57 2228.56,1544.57C2233.87,1544.57 2236.53,1551.61 2236.53,1565.69C2236.53,1579.77 2233.87,1586.81 2228.56,1586.81C2178.83,1586.81 2127.35,1585.64 2074.14,1583.29C2020.93,1580.95 1962.43,1579.77 1898.65,1579.77C1832.09,1579.77 1767.46,1580.95 1704.77,1583.29C1642.07,1585.64 1583.86,1586.81 1530.14,1586.81C1523.72,1586.81 1520.51,1579.77 1520.51,1565.69C1520.51,1551.61 1523.72,1544.57 1530.14,1544.57C1633.41,1544.57 1711.75,1511.58 1765.14,1445.6C1818.54,1379.62 1845.24,1285.08 1845.24,1161.96L1845.24,-383.76C1784.33,-448.237 1730.6,-493.759 1684.03,-520.328C1624.38,-554.362 1565.53,-571.379 1507.47,-571.379C1502.15,-571.379 1499.5,-578.42 1499.5,-592.503C1499.5,-606.586 1502.15,-613.627 1507.47,-613.627C1552.51,-613.627 1598.7,-612.454 1646.04,-610.106C1693.39,-607.759 1736.9,-606.586 1776.59,-606.586C1846.85,-606.586 1910.7,-607.759 1968.13,-610.106C2025.57,-612.454 2069.83,-613.627 2100.93,-613.627C2131.44,-613.627 2153.84,-600.131 2168.13,-573.139C2182.41,-546.147 2217.39,-498.617 2273.06,-430.55L2343.92,-346.992L2260.68,-251.966L2396.22,-285.325L3538.7,1061.87L3538.7,-185.256C3538.7,-308.371 3514.82,-403.503 3467.05,-470.653C3419.28,-537.804 3348.65,-571.379 3255.17,-571.379C3250.48,-571.379 3248.13,-578.42 3248.13,-592.503C3248.13,-606.586 3250.48,-613.627 3255.17,-613.627C3305.53,-613.627 3357.31,-611.867 3410.52,-608.346C3463.74,-604.825 3522.23,-603.065 3586.01,-603.065C3646.81,-603.065 3706.76,-604.825 3765.84,-608.346C3824.92,-611.867 3879.33,-613.627 3929.06,-613.627C3934.38,-613.627 3937.03,-606.586 3937.03,-592.503C3937.03,-578.42 3934.38,-571.379 3929.06,-571.379C3833.23,-571.379 3760.09,-537.804 3709.65,-470.653C3659.2,-403.503 3633.98,-308.371 3633.98,-185.256L3633.98,1635.77C3633.98,1642.15 3628.54,1645.93 3617.67,1647.11C3606.79,1648.28 3599.01,1647.69 3594.32,1645.35L3215.43,1205.2L3240.44,1120.16L3182.28,1166.68Z" style="fill:white;"/>
        </g>
        <circle cx="2157.72" cy="2390.4" r="1947.86" style="fill:none;stroke:white;stroke-width:79.17px;"/>
    </g>
</svg>
